<svg width="79" height="79" viewBox="0 0 79 79" fill="none" xmlns="http://www.w3.org/2000/svg">
<rect width="79" height="79" rx="11" fill="#0E1B10"/>
<path d="M11.6712 60.4062C10.5671 59.7604 10.1504 58.9792 10.4212 58.0625L11.7337 53.7812C12.1087 52.5521 13.0879 52.4271 14.6712 53.4062C16.0254 54.2604 17.5358 54.6875 19.2025 54.6875C21.4942 54.6875 22.9837 53.8958 23.6712 52.3125C24.3796 50.7292 24.7337 48.0938 24.7337 44.4062V18.5312C24.7337 16.9688 25.4629 16.1875 26.9212 16.1875H31.6712C33.1296 16.1875 33.8587 16.9688 33.8587 18.5312V43.7812C33.8587 51.4479 32.5671 56.4167 29.9837 58.6875C27.4212 60.9375 23.8587 62.0625 19.2962 62.0625C16.1087 62.0625 13.5671 61.5104 11.6712 60.4062ZM32.61 24.1875C31.0475 24.1875 30.2663 23.5104 30.2663 22.1562V18.2188C30.2663 16.8646 31.0475 16.1875 32.61 16.1875H64.735C66.2975 16.1875 67.0788 16.8646 67.0788 18.2188V22.1562C67.0788 23.5104 66.2975 24.1875 64.735 24.1875H53.235V59.2812C53.235 60.4271 52.7142 61 51.6725 61H45.6725C44.6308 61 44.11 60.4271 44.11 59.2812V24.1875H32.61Z" fill="url(#paint0_linear_475_1385)"/>
<defs>
<linearGradient id="paint0_linear_475_1385" x1="25.55" y1="25.2455" x2="43.6311" y2="57.94" gradientUnits="userSpaceOnUse">
<stop stop-color="#C9DDBD"/>
<stop offset="1" stop-color="#F3FFF1" stop-opacity="0.88"/>
</linearGradient>
</defs>
</svg>
