<svg width="81" height="82" viewBox="0 0 81 82" fill="none" xmlns="http://www.w3.org/2000/svg">
<rect x="2" width="79" height="79" rx="11" fill="#6E8970" fill-opacity="0.9"/>
<path d="M12.6712 60.4062C11.5671 59.7604 11.1504 58.9792 11.4212 58.0625L12.7337 53.7812C13.1087 52.5521 14.0879 52.4271 15.6712 53.4062C17.0254 54.2604 18.5358 54.6875 20.2025 54.6875C22.4942 54.6875 23.9837 53.8958 24.6712 52.3125C25.3796 50.7292 25.7337 48.0938 25.7337 44.4062V18.5312C25.7337 16.9688 26.4629 16.1875 27.9212 16.1875H32.6712C34.1296 16.1875 34.8587 16.9688 34.8587 18.5312V43.7812C34.8587 51.4479 33.5671 56.4167 30.9837 58.6875C28.4212 60.9375 24.8587 62.0625 20.2962 62.0625C17.1087 62.0625 14.5671 61.5104 12.6712 60.4062ZM33.61 24.1875C32.0475 24.1875 31.2663 23.5104 31.2663 22.1562V18.2188C31.2663 16.8646 32.0475 16.1875 33.61 16.1875H65.735C67.2975 16.1875 68.0788 16.8646 68.0788 18.2188V22.1562C68.0788 23.5104 67.2975 24.1875 65.735 24.1875H54.235V59.2812C54.235 60.4271 53.7142 61 52.6725 61H46.6725C45.6308 61 45.11 60.4271 45.11 59.2812V24.1875H33.61Z" fill="url(#paint0_linear_474_1374)"/>
<defs>
<linearGradient id="paint0_linear_474_1374" x1="26.2136" y1="23.8273" x2="46.3227" y2="58.3" gradientUnits="userSpaceOnUse">
<stop stop-color="#C9DDBD"/>
<stop offset="1" stop-color="#F3FFF1" stop-opacity="0.88"/>
</linearGradient>
</defs>
</svg>
