<svg width="677" height="521" viewBox="0 0 677 521" fill="none" xmlns="http://www.w3.org/2000/svg">
<path d="M223.446 263.439C225.346 266.259 234.481 280.36 239.508 288.269C241.532 291.395 244.842 296.607 246.927 299.795C249.011 302.983 252.996 309.175 255.816 313.589C261.641 322.662 271.45 337.867 276.845 346.266C278.868 349.392 280.707 351.845 280.891 351.783C281.075 351.661 283.834 350.251 286.961 348.657L292.662 345.714L297.873 349.883C300.755 352.213 303.943 354.726 305.046 355.585C306.15 356.443 311.974 361.164 318.044 366.068C324.113 370.973 331.715 377.103 334.903 379.678L340.727 384.338L356.116 369.011L371.565 353.623L373.956 356.872C375.305 358.711 381.62 367.356 387.934 376.123C394.31 384.89 401.851 395.373 404.794 399.419C407.737 403.466 414.91 413.398 420.734 421.49C426.497 429.583 431.524 436.204 431.831 436.204C432.137 436.204 432.873 435.468 433.486 434.549C436.429 430.012 441.824 422.349 442.253 422.042C442.56 421.858 445.625 426.088 449.119 431.422C457.151 443.561 458.806 446.32 458.5 446.32C458.316 446.32 458.806 446.994 459.542 447.791C460.277 448.588 463.098 452.635 465.734 456.803C468.431 460.972 474.01 469.494 478.057 475.748C487.253 489.726 496.878 504.501 499.514 508.547C500.618 510.202 504.971 516.946 509.262 523.445C513.493 529.944 516.987 535.4 516.987 535.584C516.987 535.706 494.119 535.829 466.163 535.829C418.282 535.829 415.278 535.768 414.971 534.726C414.481 533.132 407.246 504.93 406.02 499.658C405.407 497.144 402.71 486.231 399.951 475.441C397.192 464.651 390.816 439.515 385.789 419.651C372.975 368.827 372.301 366.436 372.117 366.191C371.994 366.068 370.094 368.52 368.009 371.647C365.864 374.774 362.369 379.801 360.223 382.866C353.541 392.492 338.336 414.44 336.313 417.321C335.823 418.118 335.148 421 334.842 423.759C333.738 433.507 331.163 455.271 329.692 467.9C328.834 474.828 328.098 480.897 328.098 481.388C328.037 481.817 327.301 475.809 326.381 467.961C324.665 452.451 324.542 446.626 326.136 447.239C326.933 447.485 326.995 447.423 326.32 446.626C325.707 445.891 325.768 443.806 326.627 435.714C327.24 430.257 327.608 425.291 327.485 424.678C327.301 423.82 325.891 425.046 321.722 429.644C318.657 433.016 315.837 435.714 315.407 435.53C314.978 435.407 314.733 435.53 314.917 435.836C315.285 436.388 312.219 440.005 301.797 451.224C298.18 455.087 291.313 462.566 286.531 467.778C281.749 472.989 277.642 477.342 277.397 477.403C277.151 477.464 274.944 474.705 272.492 471.272C270.101 467.839 267.71 464.528 267.22 463.915C266.423 462.873 265.993 463.057 260.598 466.858C257.472 469.065 250.912 473.724 246.068 477.158L237.24 483.411L232.458 491.933L227.676 500.455L215.415 506.769C208.671 510.264 202.908 513.145 202.601 513.145C202.356 513.145 201.498 512.348 200.762 511.367C199.658 509.835 199.597 509.344 200.149 507.444C200.762 505.42 200.639 505.053 198.555 502.11L196.287 498.983L198.555 494.876C200.517 491.381 210.019 479.426 231.109 454.045L236.198 447.914V443.929C236.198 440.68 236.443 439.699 237.547 438.411C238.773 437.001 238.834 436.94 237.669 437.921L236.382 438.963L236.014 432.464C235.769 428.847 235.585 421.245 235.585 415.605C235.585 405.673 235.646 405.121 237.363 400.83C238.282 398.377 240.428 392.553 242.022 387.955L244.904 379.617L240.183 359.753C237.608 348.841 234.175 334.311 232.519 327.383C230.864 320.455 227.247 305.312 224.488 293.664C221.729 282.015 219.338 272.206 219.093 271.777C218.909 271.348 216.886 273.371 214.127 276.682C211.613 279.747 207.015 285.203 204.011 288.759C200.946 292.315 197.329 296.607 195.98 298.262C175.197 323.214 168.024 331.797 163.426 337.192L157.969 343.63L148.467 343.446L139.025 343.2L137.676 345.898C136.941 347.308 135.776 349.515 135.101 350.68C134.427 351.845 130.933 358.159 127.377 364.719L120.878 376.613L124.127 380.046C125.967 381.947 132.281 388.568 138.167 394.821C144.052 401.075 150.551 407.941 152.635 410.148L156.498 414.133L156.13 426.088C155.456 445.707 155.823 445.462 149.815 430.319L144.604 417.444L133.569 406.041C127.438 399.787 120.081 392.124 117.138 389.058C114.196 385.993 111.743 383.725 111.743 384.031C111.743 384.706 125.047 422.471 128.419 431.422C129.584 434.426 129.584 434.671 128.603 436.143C127.315 438.105 127.254 438.105 125.476 436.204C123.76 434.365 120.388 434.12 118.916 435.714C118.426 436.327 117.2 438.472 116.28 440.496C111.069 452.021 108.678 456.803 108.249 456.558C108.003 456.374 107.758 456.987 107.697 457.846C107.697 458.765 106.777 461.218 105.735 463.363C104.693 465.448 103.589 468.084 103.283 469.188C102.976 470.352 100.708 473.908 98.2555 477.219L93.8414 483.227L89.8564 476.606L85.8714 469.985L86.6071 466.367C86.9749 464.344 87.0975 462.505 86.791 462.26C86.5458 462.015 84.3387 460.482 82.009 458.888C72.0771 452.083 66.3755 447.914 66.3755 447.607C66.3755 447.362 69.9314 443.622 74.3455 439.269L82.3155 431.361L84.8905 433.752L87.5267 436.204L85.0744 433.568L82.6834 430.993L86.1779 427.437L89.6725 423.881L86.9136 411.681C85.3809 404.937 83.4191 396.538 82.6221 392.982C81.8251 389.426 80.2924 382.805 79.2501 378.268C78.2079 373.732 76.9818 368.398 76.6139 366.436C76.2461 364.535 75.7556 362.941 75.5717 362.941C75.3878 362.941 73.8551 364.719 72.1998 366.926C70.4831 369.133 66.9273 373.793 64.2298 377.226C61.5322 380.659 58.896 384.093 58.4055 384.828C57.9151 385.564 54.7271 389.672 51.4165 394.024C48.0445 398.316 41.6685 406.531 37.3157 412.233C32.9015 417.934 28.3035 423.881 27.0773 425.414C25.9125 426.947 23.9506 429.522 22.7245 431.116L20.5174 433.997L18.5555 429.399C16.7776 425.353 16.655 424.74 17.452 423.759C23.2762 416.831 37.0705 400.216 40.6263 395.802C41.7911 394.331 46.0827 389.181 50.1903 384.338C54.2366 379.494 62.2066 369.93 67.8469 363.064C73.4872 356.259 78.2079 350.68 78.3305 350.68C78.6371 350.68 83.6643 355.094 89.1207 360.121C98.6234 368.95 108.249 377.349 108.923 377.471C109.291 377.594 116.341 367.539 124.618 355.094C132.833 342.71 139.822 332.472 140.067 332.226C140.497 331.981 146.934 332.41 153.065 333.146C155.272 333.391 155.578 333.207 158.582 330.019C160.299 328.119 163.058 325.115 164.774 323.337C166.43 321.559 168.514 319.29 169.372 318.371C172.193 315.183 197.881 286.981 205.912 278.398C207.935 276.191 212.349 271.409 215.598 267.731C218.909 264.113 221.668 261.171 221.791 261.171C221.852 261.171 222.649 262.213 223.446 263.439ZM241.716 362.512C241.716 362.635 242.451 363.371 243.371 364.229L245.087 365.7L243.616 363.984C242.206 362.451 241.716 362.022 241.716 362.512ZM310.687 364.781C310.074 365.455 309.706 366.007 309.89 366.007C310.074 366.007 310.687 365.455 311.3 364.781C311.913 364.106 312.281 363.555 312.097 363.555C311.913 363.555 311.3 364.106 310.687 364.781ZM89.6725 365.7C88.8755 366.559 88.385 367.233 88.5689 367.233C88.6915 367.233 89.4885 366.559 90.2855 365.7C91.0825 364.842 91.573 364.168 91.3891 364.168C91.2665 364.168 90.4695 364.842 89.6725 365.7ZM305.782 369.685C305.169 370.36 304.801 370.911 304.985 370.911C305.169 370.911 305.782 370.36 306.395 369.685C307.008 369.011 307.376 368.459 307.192 368.459C307.008 368.459 306.395 369.011 305.782 369.685ZM247.846 368.704C247.846 368.827 248.337 369.317 248.889 369.747C249.869 370.544 249.931 370.482 249.134 369.501C248.337 368.52 247.846 368.214 247.846 368.704ZM85.0131 370.421L83.2351 372.444L85.197 370.666C87.0975 368.95 87.5267 368.459 87.0362 368.459C86.9136 368.459 86.0553 369.379 85.0131 370.421ZM80.7215 374.712L78.9436 376.736L80.9055 374.958C82.806 373.241 83.2351 372.751 82.7447 372.751C82.6221 372.751 81.7638 373.67 80.7215 374.712ZM300.877 374.59C300.264 375.264 299.897 375.816 300.08 375.816C300.264 375.816 300.877 375.264 301.491 374.59C302.104 373.915 302.471 373.364 302.288 373.364C302.104 373.364 301.491 373.915 300.877 374.59ZM252.751 373.609C252.751 373.732 253.241 374.222 253.793 374.651C254.774 375.448 254.835 375.387 254.038 374.406C253.241 373.425 252.751 373.118 252.751 373.609ZM295.973 379.494C295.36 380.169 294.992 380.721 295.176 380.721C295.36 380.721 295.973 380.169 296.586 379.494C297.199 378.82 297.567 378.268 297.383 378.268C297.199 378.268 296.586 378.82 295.973 379.494ZM257.656 378.514C257.656 378.636 258.146 379.127 258.698 379.556C259.679 380.353 259.74 380.291 258.943 379.311C258.146 378.33 257.656 378.023 257.656 378.514ZM291.068 384.399C290.455 385.073 290.087 385.625 290.271 385.625C290.455 385.625 291.068 385.073 291.681 384.399C292.294 383.725 292.662 383.173 292.478 383.173C292.294 383.173 291.681 383.725 291.068 384.399ZM262.56 383.418C262.56 383.541 263.051 384.031 263.602 384.46C264.583 385.257 264.645 385.196 263.848 384.215C263.051 383.234 262.56 382.928 262.56 383.418ZM286.164 389.304C285.551 389.978 285.183 390.53 285.367 390.53C285.551 390.53 286.164 389.978 286.777 389.304C287.39 388.629 287.758 388.078 287.574 388.078C287.39 388.078 286.777 388.629 286.164 389.304ZM267.465 388.323C267.465 388.445 267.955 388.936 268.507 389.365C269.488 390.162 269.549 390.101 268.752 389.12C267.955 388.139 267.465 387.832 267.465 388.323ZM43.6917 392.553C43.6917 392.676 44.8565 393.84 46.2666 395.128L48.9028 397.58L46.4505 394.944C44.2435 392.553 43.6917 392.063 43.6917 392.553ZM281.259 394.208C280.646 394.883 280.278 395.434 280.462 395.434C280.646 395.434 281.259 394.883 281.872 394.208C282.485 393.534 282.853 392.982 282.669 392.982C282.485 392.982 281.872 393.534 281.259 394.208ZM272.369 393.227C272.369 393.35 272.86 393.84 273.412 394.27C274.393 395.067 274.454 395.005 273.657 394.024C272.86 393.043 272.369 392.737 272.369 393.227ZM275.925 396.783L277.274 398.132L275.864 399.726L274.515 401.259L276.048 399.91C277.335 398.745 277.826 398.684 278.5 399.297C279.297 399.91 279.297 399.91 278.684 399.174C278.071 398.439 278.132 398.009 278.991 397.028C280.033 395.741 280.033 395.741 278.745 396.845C277.519 397.825 277.397 397.825 276.354 396.661C275.741 395.986 275.067 395.434 274.883 395.434C274.699 395.434 275.128 396.048 275.925 396.783ZM282.179 403.037C282.179 403.159 282.669 403.65 283.221 404.079C284.202 404.876 284.263 404.815 283.466 403.834C282.669 402.853 282.179 402.546 282.179 403.037ZM271.45 404.018C270.837 404.692 270.469 405.244 270.653 405.244C270.837 405.244 271.45 404.692 272.063 404.018C272.676 403.343 273.044 402.791 272.86 402.791C272.676 402.791 272.063 403.343 271.45 404.018ZM287.083 407.941C287.083 408.064 287.574 408.554 288.125 408.983C289.106 409.78 289.168 409.719 288.371 408.738C287.574 407.757 287.083 407.451 287.083 407.941ZM266.545 408.922C265.932 409.597 265.564 410.148 265.748 410.148C265.932 410.148 266.545 409.597 267.158 408.922C267.771 408.248 268.139 407.696 267.955 407.696C267.771 407.696 267.158 408.248 266.545 408.922ZM291.988 412.846C291.988 412.968 292.478 413.459 293.03 413.888C294.011 414.685 294.072 414.624 293.275 413.643C292.478 412.662 291.988 412.355 291.988 412.846ZM261.641 413.827C261.027 414.501 260.66 415.053 260.844 415.053C261.027 415.053 261.641 414.501 262.254 413.827C262.867 413.152 263.235 412.601 263.051 412.601C262.867 412.601 262.254 413.152 261.641 413.827ZM296.892 417.75C296.892 417.873 297.383 418.364 297.935 418.793C298.916 419.59 298.977 419.528 298.18 418.547C297.383 417.567 296.892 417.26 296.892 417.75ZM256.736 418.731C256.123 419.406 255.755 419.958 255.939 419.958C256.123 419.958 256.736 419.406 257.349 418.731C257.962 418.057 258.33 417.505 258.146 417.505C257.962 417.505 257.349 418.057 256.736 418.731ZM301.797 422.655C301.797 422.778 302.288 423.268 302.839 423.697C303.82 424.494 303.882 424.433 303.085 423.452C302.288 422.471 301.797 422.165 301.797 422.655ZM251.831 423.636C251.218 424.31 250.85 424.862 251.034 424.862C251.218 424.862 251.831 424.31 252.444 423.636C253.057 422.962 253.425 422.41 253.241 422.41C253.057 422.41 252.444 422.962 251.831 423.636ZM306.702 427.56C306.702 427.682 307.192 428.173 307.744 428.602C308.725 429.399 308.786 429.338 307.989 428.357C307.192 427.376 306.702 427.069 306.702 427.56ZM246.927 428.541C246.314 429.215 245.946 429.767 246.13 429.767C246.314 429.767 246.927 429.215 247.54 428.541C248.153 427.866 248.521 427.314 248.337 427.314C248.153 427.314 247.54 427.866 246.927 428.541ZM311.606 432.464C311.606 432.587 312.097 433.077 312.649 433.507C313.629 434.304 313.691 434.242 312.894 433.261C312.097 432.28 311.606 431.974 311.606 432.464ZM242.022 433.445C241.409 434.12 241.041 434.671 241.225 434.671C241.409 434.671 242.022 434.12 242.635 433.445C243.248 432.771 243.616 432.219 243.432 432.219C243.248 432.219 242.635 432.771 242.022 433.445ZM88.4463 437.308C88.4463 437.43 89.3659 438.289 90.4081 439.331L92.4313 441.109L90.6534 439.086C88.9368 437.246 88.4463 436.817 88.4463 437.308ZM93.3509 442.212C93.3509 442.335 94.2705 443.193 95.3128 444.235L97.3359 446.013L95.558 443.99C93.8414 442.151 93.3509 441.722 93.3509 442.212ZM98.2555 447.117C98.2555 447.239 99.1751 448.098 100.217 449.14L102.241 450.918L100.463 448.895C98.746 447.056 98.2555 446.626 98.2555 447.117ZM448.936 455.823C445.073 459.685 442.069 462.873 442.192 462.873C442.376 462.873 445.686 459.685 449.549 455.823C453.411 451.96 456.415 448.772 456.292 448.772C456.109 448.772 452.798 451.96 448.936 455.823ZM103.16 452.021C103.16 452.144 104.08 453.002 105.122 454.045L107.145 455.823L105.367 453.799C103.651 451.96 103.16 451.531 103.16 452.021Z" fill="url(#paint0_linear_482_1687)" fill-opacity="0.1"/>
<path d="M207.567 317.88C207.751 318.861 208.916 325.912 210.142 333.514C211.307 341.116 212.962 351.293 213.759 356.198C214.618 361.102 215.844 368.827 216.579 373.425L217.928 381.763L216.457 384.46C213.637 389.488 207.567 400.033 204.011 406.163C201.988 409.535 199.72 413.52 198.923 415.053L197.451 417.812L199.597 430.38C200.823 437.676 201.498 443.316 201.191 443.868C200.946 444.358 196.654 449.447 191.689 455.21C186.784 460.911 180.224 468.513 177.22 472.069C174.155 475.625 170.967 479.365 170.047 480.346C169.189 481.388 166.798 484.085 164.836 486.354C162.383 489.174 161.035 490.339 160.606 489.91C159.931 489.235 160.851 487.151 170.905 466.245C173.848 460.175 177.894 451.838 179.856 447.669L183.473 440.128V417.015V393.902L192.669 384.706L201.866 375.51L202.417 368.766C202.785 365.026 203.889 352.335 204.931 340.564C207.261 313.344 207.015 315.612 207.567 317.88Z" fill="url(#paint1_linear_482_1687)" fill-opacity="0.1"/>
<path d="M8.62363 419.406C10.3402 423.146 12.1795 427.069 15.7353 434.671L17.268 437.982L15.9192 439.576L14.5705 441.109L15.9806 439.944C16.7162 439.269 17.4519 438.902 17.6359 439.024C17.9424 439.392 23.4601 451.163 23.4601 451.592C23.4601 451.715 22.2339 451.838 20.7012 451.838C19.1686 451.838 17.9424 452.083 17.9424 452.328C17.9424 452.635 20.0882 455.761 22.6631 459.256C28.1195 466.613 30.2039 469.555 30.2039 469.923C30.2039 470.107 27.9969 470.23 25.2993 470.23C22.6018 470.23 20.3947 470.414 20.3947 470.598C20.3947 470.843 22.3566 473.663 24.2571 476.054C27.3838 479.978 36.3347 492.975 36.3347 493.527C36.3347 494.079 34.3729 494.201 28.7326 494.017C24.5636 493.956 20.9465 494.017 20.7626 494.201C20.5173 494.446 23.1536 497.144 26.5255 500.332C29.8974 503.459 32.6562 506.279 32.6562 506.647C32.6562 506.953 31.9206 508.118 31.0622 509.283C30.2039 510.448 29.5909 511.919 29.7135 512.716C29.8974 513.881 30.3266 514.065 33.3919 514.249C37.193 514.433 37.8061 514.984 35.5377 516.088C34.6181 516.64 32.7176 516.701 29.1004 516.333C26.3416 516.088 24.0732 515.965 24.0732 516.149C24.0732 516.395 25.4832 517.805 27.2612 519.399L30.5105 522.28L27.8742 524.916C23.8892 529.024 24.5636 530.924 30.1426 530.924H33.5146L31.1236 533.377L28.7326 535.829H6.90701H-14.9185L-17.3095 533.377L-19.7005 530.924H-16.206C-11.7305 530.924 -10.8109 529.637 -12.8954 526.572C-14.8572 523.751 -17.6161 519.828 -19.3327 517.498L-20.7428 515.598H-19.2101C-17.8 515.598 -15.7768 514.187 -15.7768 513.207C-15.7768 512.961 -16.8804 511.183 -18.2904 509.283L-20.7428 505.788L-19.5166 504.072C-18.9035 503.152 -17.3708 501.435 -16.1447 500.332C-14.9185 499.167 -13.9376 497.941 -13.9376 497.696C-13.9376 497.45 -15.409 497.205 -17.2482 497.205H-20.5588L-22.2141 493.895L-23.9308 490.523L-20.3136 485.557C-18.2904 482.859 -15.2251 478.506 -13.3858 475.931L-10.0139 471.272L-14.4894 471.701C-18.1065 472.069 -18.9035 472.008 -18.4744 471.333C-18.2291 470.904 -15.2251 466.919 -11.9144 462.444C-8.60383 458.03 -5.9063 454.167 -5.9063 453.861C-5.9676 453.615 -7.07114 453.37 -8.41991 453.37C-9.76868 453.37 -10.8722 453.186 -10.8722 452.88C-10.8722 452.389 6.17132 416.218 6.66178 415.727C6.7844 415.605 7.70401 417.26 8.62363 419.406ZM11.4438 443.99L9.66586 446.013L11.6277 444.235C13.5282 442.519 13.9574 442.028 13.4669 442.028C13.3443 442.028 12.486 442.948 11.4438 443.99ZM6.53917 448.895L4.76124 450.918L6.72309 449.14C8.62363 447.423 9.05278 446.933 8.56232 446.933C8.4397 446.933 7.5814 447.853 6.53917 448.895ZM1.63455 453.799L-0.143372 455.823L1.81847 454.045C3.71901 452.328 4.14817 451.838 3.65771 451.838C3.53509 451.838 2.67678 452.757 1.63455 453.799ZM-5.9676 461.463L-10.5657 466.245L-5.84499 461.647C-1.43083 457.417 -0.756449 456.742 -1.24691 456.742C-1.30822 456.742 -3.45399 458.888 -5.9676 461.463Z" fill="url(#paint2_linear_482_1687)" fill-opacity="0.1"/>
<path d="M554.875 421.306C555.243 421.674 555.611 422.226 555.611 422.471C555.611 422.716 559.167 430.441 563.581 439.576C567.934 448.772 571.551 456.374 571.551 456.497C571.551 456.558 570.325 456.742 568.731 456.865L565.972 457.049L570.631 463.179C573.268 466.551 576.21 470.536 577.253 472.008L579.092 474.705L574.678 474.276L570.202 473.908L571.612 475.686C572.409 476.667 573.635 478.261 574.31 479.242C574.984 480.162 577.375 483.534 579.705 486.66L583.874 492.423L581.973 495.734L580.073 499.044H576.946H573.881L577.375 503.029L580.87 506.953L578.356 510.448C576.394 513.207 576.026 514.126 576.517 515.046C576.823 515.72 577.743 516.211 578.601 516.211C579.46 516.211 580.134 516.456 580.134 516.701C580.134 517.008 578.356 519.644 576.149 522.709C571.122 529.576 571.122 530.557 576.088 530.802L579.705 530.986L577.314 533.438L574.984 535.829H554.078H533.172L530.781 533.377L528.39 530.924H531.762C534.889 530.924 536.606 530.189 536.606 528.963C536.606 528.656 535.441 527.185 534.031 525.652L531.394 522.832L534.644 519.95C536.422 518.418 537.832 516.946 537.832 516.762C537.832 516.578 535.441 516.762 532.559 517.13C527.961 517.743 527.164 517.743 526.306 516.885C525.448 515.965 525.57 515.904 528.022 515.72C532.621 515.352 533.418 513.758 530.781 510.325C529.923 509.222 529.249 508.179 529.249 507.934C529.249 507.75 532.069 504.93 535.441 501.619L541.694 495.673L533.601 495.366L525.57 495.059L533.479 484.024L541.388 472.989L536.544 472.805C533.847 472.682 531.701 472.498 531.701 472.376C531.701 472.192 534.398 468.391 537.77 463.915L543.779 455.823L541.142 455.639C539.671 455.516 538.445 455.209 538.445 454.903C538.445 454.596 539.426 452.205 540.652 449.569C541.939 446.933 542.982 444.481 543.104 444.174C543.227 443.622 545.373 438.902 552.423 424.065C553.772 421.245 554.262 420.693 554.875 421.306ZM543.962 445.891C543.962 445.952 550.216 452.205 557.879 459.808L571.857 473.602L558.063 459.624C545.25 446.688 543.962 445.4 543.962 445.891Z" fill="url(#paint3_linear_482_1687)" fill-opacity="0.1"/>
<path d="M126.273 448.22C128.541 453.064 131.852 459.93 133.569 463.486L136.695 469.923L134.304 470.23L131.852 470.536L136.879 477.28C139.699 480.959 142.213 484.392 142.581 484.882C143.133 485.557 142.581 485.618 139.332 485.25L135.469 484.821L136.634 486.66C137.247 487.703 138.473 489.297 139.332 490.277C140.19 491.197 142.213 493.895 143.807 496.163L146.688 500.332L145.033 503.397C143.5 506.034 143.071 506.401 141.293 506.401C140.251 506.401 139.332 506.585 139.332 506.831C139.332 507.137 140.435 508.547 141.784 509.957L144.236 512.655L142.09 515.659C140.251 518.05 140.006 518.847 140.496 519.828C140.864 520.502 141.723 521.115 142.397 521.238C143.5 521.422 143.255 521.974 140.251 525.959C135.653 532.089 135.837 533.929 141.048 533.99C142.336 533.99 142.397 534.112 141.539 534.909C140.803 535.706 136.573 535.829 111.375 535.829H82.1315L77.9626 531.844L73.7936 527.798L77.5947 528.227C79.6792 528.472 81.5184 528.717 81.641 528.84C82.2541 529.392 84.1546 527.675 84.1546 526.633C84.1546 525.959 81.2732 522.648 77.2269 518.724L70.3604 511.919H74.4067C79.9244 511.919 80.1696 511.122 76.3686 505.604C71.0961 497.941 71.3413 498.861 73.6097 496.04L75.5716 493.588L74.0389 491.933C72.1383 489.91 72.1383 489.787 74.0389 486.783C74.8972 485.434 75.5716 484.208 75.5716 484.024C75.5716 483.534 81.8249 472.621 82.0089 472.805C82.5606 473.418 93.4121 491.749 93.7186 492.546C94.0252 493.343 93.6573 493.527 91.5729 493.527C90.1628 493.527 89.0592 493.772 89.0592 494.017C89.0592 494.324 90.5919 496.47 92.4312 498.861C94.2704 501.252 95.8031 503.397 95.8031 503.52C95.8031 503.704 94.8835 503.949 93.7186 504.072L91.6342 504.256L95.1287 509.16C97.0906 511.858 98.9911 514.065 99.3589 514.065C99.7268 514.065 102.547 511.735 105.612 508.854L111.191 503.643L104.386 503.336L97.5197 503.029L104.325 493.649C108.065 488.5 111.13 484.147 111.13 484.024C111.13 483.84 109.352 483.718 107.145 483.718C104.938 483.718 103.16 483.595 103.16 483.411C103.16 483.166 105.244 480.223 107.819 476.79C110.394 473.357 112.663 470.169 112.785 469.739C113.031 469.249 112.417 469.004 110.885 469.004C109.659 469.004 108.678 468.82 108.678 468.636C108.678 468.452 109.536 466.429 110.578 464.222C111.62 461.953 114.563 455.577 117.077 449.998C119.59 444.419 121.798 439.76 121.92 439.637C121.981 439.515 123.943 443.377 126.273 448.22ZM112.356 461.218C112.356 461.34 113.398 462.382 114.625 463.547L116.954 465.632L114.87 463.302C112.847 461.218 112.356 460.727 112.356 461.218Z" fill="url(#paint4_linear_482_1687)" fill-opacity="0.1"/>
<path d="M361.879 445.891C361.879 447.239 362.553 454.535 363.411 462.137C364.208 469.801 365.189 479.242 365.557 483.104C365.925 487.028 366.293 491.013 366.415 491.994C366.661 494.017 366.109 495.856 361.879 507.321C360.285 511.674 357.832 518.295 356.484 522.035C355.135 525.713 353.418 530.373 352.682 532.273L351.395 535.829H342.199C337.172 535.829 333.064 535.768 333.064 535.645C333.064 535.523 333.8 533.929 334.658 532.089C342.015 516.946 353.479 490.829 353.97 488.316C354.706 484.147 357.832 465.141 359.488 454.29C360.898 445.032 361.817 441.722 361.879 445.891Z" fill="url(#paint5_linear_482_1687)" fill-opacity="0.1"/>
<path d="M57.8537 459.011C58.712 460.666 61.4096 465.693 63.8619 470.23C66.3142 474.767 68.5826 478.752 68.8891 479.058C70.1766 480.468 69.3796 481.265 66.682 481.265C65.1493 481.265 63.9232 481.449 63.9232 481.694C63.9845 482.001 65.7624 484.515 67.9082 487.396C70.1152 490.278 71.8932 492.791 71.8932 493.036C71.8932 493.282 70.3605 493.527 68.4599 493.649L65.088 493.833L67.1725 496.592C73.1806 504.501 76.1847 508.792 76.1847 509.406C76.1847 509.835 74.3455 510.08 70.7896 510.08H65.4559L73.6098 518.173C78.0852 522.587 81.6411 526.265 81.5798 526.326C81.3346 526.51 71.1575 525.468 69.5635 525.1C68.8278 524.916 68.2147 524.978 68.2147 525.284C68.2147 525.591 70.5444 527.982 73.4259 530.557C76.3073 533.193 78.637 535.523 78.637 535.707C78.637 535.952 68.0921 536.074 55.2175 535.952L31.7979 535.829L34.9859 532.58C36.7639 530.802 38.1739 529.147 38.1739 528.963C38.1739 528.717 35.8442 528.411 33.0241 528.35L27.8129 528.166L34.802 520.502L41.7911 512.839L36.8865 512.655C34.2502 512.532 32.0432 512.226 32.0432 511.919C32.0432 511.674 32.6562 510.632 33.4532 509.651C35.1699 507.566 44.3047 494.814 44.3047 494.569C44.3047 494.446 43.0786 494.508 41.5459 494.753C40.0132 494.998 38.787 494.937 38.787 494.63C38.787 494.385 40.6876 491.626 43.0786 488.561C45.4082 485.434 47.3701 482.675 47.3701 482.43C47.3701 482.124 45.96 481.878 44.2434 481.878C41.7298 481.878 41.178 481.694 41.4846 480.959C41.8524 479.978 55.9532 456.129 56.1371 456.129C56.1984 456.129 56.9954 457.417 57.8537 459.011Z" fill="url(#paint6_linear_482_1687)" fill-opacity="0.1"/>
<path d="M512.696 468.881C515.822 474.154 519.194 479.733 520.114 481.265L521.892 484.024L518.397 484.331L514.964 484.637L517.968 488.622C519.685 490.829 521.647 493.527 522.444 494.63L523.915 496.715L520.972 496.224C517.478 495.734 517.171 494.998 524.467 504.93C527.409 509.038 529.862 512.593 529.862 512.777C529.862 512.961 527.777 513.145 525.264 513.145C522.75 513.145 520.666 513.329 520.666 513.513C520.666 513.697 523.731 517.253 527.409 521.299L534.215 528.779L528.881 528.963L523.547 529.147L526.796 532.457L530.107 535.829H526.306C523.363 535.829 522.505 535.645 522.505 534.909C522.505 533.99 520.85 531.354 506.81 509.957C502.641 503.643 498.963 497.88 498.534 497.083C498.104 496.286 497.001 494.63 495.959 493.404C493.997 490.952 493.997 490.952 497.185 487.028C499.944 483.595 499.821 482.921 496.449 483.227C494.916 483.35 493.69 483.288 493.69 483.166C493.69 482.859 505.339 461.647 506.258 460.298C506.871 459.378 507.791 460.666 512.696 468.881Z" fill="url(#paint7_linear_482_1687)" fill-opacity="0.1"/>
<path d="M625.318 464.222C626.176 465.325 637.15 485.802 637.15 486.354C637.15 486.599 636.169 486.783 635.004 486.783C633.84 486.783 632.859 487.028 632.859 487.335C632.859 487.58 634.637 490.155 636.844 492.975C639.051 495.795 640.829 498.309 640.829 498.554C640.829 498.738 639.725 498.799 638.376 498.615C637.028 498.431 635.924 498.431 635.924 498.615C635.924 498.861 637.641 501.374 639.725 504.317C641.871 507.198 644.323 510.693 645.243 511.98L646.959 514.371H642.177L637.457 514.433L644.936 521.728C649.105 525.775 652.477 529.147 652.477 529.208C652.477 529.33 651.251 529.33 649.78 529.208C644.875 528.779 644.691 529.024 647.511 532.457C648.921 534.112 649.841 535.584 649.534 535.706C648.431 536.074 604.657 536.136 604.657 535.768C604.657 535.523 606.558 533.561 608.826 531.415C611.156 529.269 613.179 527.185 613.424 526.878C613.731 526.326 607.477 526.694 602.94 527.43C602.205 527.553 601.592 527.491 601.592 527.185C601.592 526.939 604.902 523.629 608.949 519.766L616.244 512.839L611.094 512.532L605.883 512.226L607.906 509.651C610.604 506.095 613.424 502.171 614.221 500.761C614.65 500.087 615.263 499.228 615.631 498.861C616.857 497.634 616.367 497.267 613.24 497.083L610.113 496.899L613.853 492.055C615.876 489.358 617.532 486.906 617.532 486.66C617.532 486.415 616.306 486.17 614.834 486.17H612.075L616.735 477.709C624.766 463.179 624.643 463.363 625.318 464.222Z" fill="url(#paint8_linear_482_1687)" fill-opacity="0.1"/>
<path d="M187.029 485.557C189.788 490.584 192.056 494.998 192.056 495.305C192.056 495.611 191.198 495.979 190.156 496.102L188.255 496.286L190.033 498.615C190.953 499.841 192.547 501.926 193.466 503.213L195.244 505.482L193.344 505.666C191.014 505.911 191.014 506.279 193.099 509.038C195.735 512.41 199.72 518.05 199.904 518.663C200.026 519.031 198.616 519.276 196.716 519.276C194.815 519.276 193.283 519.521 193.283 519.766C193.283 520.012 195.612 522.832 198.432 526.02L203.644 531.844L199.291 532.028L194.938 532.212L196.654 533.99L198.432 535.829H182.676C174.032 535.829 166.92 535.584 166.92 535.339C166.92 535.032 168.024 533.929 169.373 532.825C171.702 530.986 172.744 528.84 171.028 529.33C170.66 529.514 168.33 529.76 166.001 530.005L161.709 530.373L167.962 524.303C171.457 520.931 174.277 518.05 174.277 517.805C174.277 517.621 172.499 517.437 170.292 517.437C168.085 517.437 166.307 517.253 166.307 517.069C166.307 516.885 167.227 515.536 168.269 514.065C172.867 507.811 174.277 505.85 174.277 505.543C174.277 505.359 173.174 505.175 171.825 505.053L169.373 504.869L172.683 500.148L176.055 495.427L173.664 495.243L171.212 495.059L176.116 486.231C178.814 481.388 181.021 477.219 181.021 476.912C181.021 475.134 182.554 477.403 187.029 485.557Z" fill="url(#paint9_linear_482_1687)" fill-opacity="0.1"/>
<path d="M258.882 488.99L252.567 501.19L251.77 514.984C251.341 522.587 250.973 530.373 250.973 532.273L250.912 535.829H240.735C231.354 535.829 230.619 535.768 230.925 534.726C231.109 534.174 233.439 524.732 236.198 513.758C239.631 499.78 241.409 493.588 242.206 493.036C242.758 492.546 246.436 489.971 250.299 487.273C254.161 484.515 259.127 481.081 261.273 479.549L265.196 476.728L258.882 488.99Z" fill="url(#paint10_linear_482_1687)" fill-opacity="0.1"/>
<path d="M595.277 483.534C598.22 488.254 603.738 497.512 606.19 501.619L607.171 503.336H603.738H600.304L602.757 506.647C604.902 509.589 605.086 510.019 604.228 510.816C603.124 511.98 603.615 514.187 605.148 514.555C605.883 514.739 605.761 514.862 604.78 514.923L603.308 514.984L604.902 516.885C605.761 517.927 606.496 518.969 606.496 519.153C606.496 519.399 604.964 520.931 603.063 522.648C598.894 526.326 598.159 527.614 599.201 528.901C599.875 529.637 600.795 529.76 604.044 529.392L608.029 528.963L604.657 532.396L601.347 535.829H589.698H578.05L581.36 532.457L584.671 529.085H579.644C576.885 529.085 574.616 528.901 574.616 528.717C574.616 528.35 576.333 525.897 582.096 517.927C583.383 516.211 584.426 514.555 584.426 514.249C584.426 514.004 583.199 513.758 581.667 513.758C580.134 513.758 578.908 513.574 578.908 513.329C578.908 512.961 580.808 510.264 584.61 505.298L586.387 503.029L583.567 502.846C582.035 502.723 580.747 502.539 580.747 502.355C580.747 502.171 581.789 500.148 583.138 497.941C586.204 492.607 587.368 490.523 590.25 485.066C591.476 482.675 592.763 480.652 593.009 480.652C593.254 480.652 594.296 481.94 595.277 483.534Z" fill="url(#paint11_linear_482_1687)" fill-opacity="0.1"/>
<path d="M158.276 495.55C160.115 498.677 162.813 503.091 164.223 505.482L166.859 509.773L164.161 509.957C162.629 510.08 161.403 510.325 161.403 510.509C161.403 510.754 162.016 511.551 162.751 512.41C163.855 513.513 164.161 514.555 164.161 517.13C164.161 519.337 164.468 520.747 165.204 521.544C166.246 522.648 166.123 522.832 162.874 526.081C160.299 528.595 159.563 529.76 159.686 530.924C159.87 532.335 160.054 532.457 163.119 532.396L166.43 532.273L164.713 534.051L162.997 535.829H153.494H143.991L145.646 534.112C146.566 533.193 147.302 532.212 147.302 531.967C147.302 531.721 145.524 531.538 143.317 531.538C141.11 531.538 139.332 531.415 139.332 531.231C139.332 531.108 141.171 528.472 143.378 525.407C145.646 522.341 147.24 519.644 147.057 519.399C146.811 519.215 145.646 519.092 144.482 519.215L142.336 519.399L143.746 517.253C144.543 516.088 146.076 513.881 147.179 512.287L149.202 509.467H146.627C144.114 509.467 144.114 509.467 145.033 508.057C145.585 507.321 147.363 504.072 149.018 500.884C150.735 497.696 152.758 493.895 153.555 492.485L155.027 489.91L158.276 495.55Z" fill="url(#paint12_linear_482_1687)" fill-opacity="0.1"/>
<path d="M609.255 514.985C609.745 515.782 608.335 515.782 607.109 514.985C606.374 514.494 606.435 514.371 607.538 514.371C608.274 514.371 609.071 514.617 609.255 514.985Z" fill="url(#paint13_linear_482_1687)" fill-opacity="0.1"/>
<defs>
<linearGradient id="paint0_linear_482_1687" x1="266.985" y1="535.829" x2="266.985" y2="261.171" gradientUnits="userSpaceOnUse">
<stop stop-color="#647E67"/>
<stop offset="0.203125" stop-color="#0CAE1F" stop-opacity="0.54"/>
<stop offset="1" stop-color="#657F67" stop-opacity="0.5"/>
</linearGradient>
<linearGradient id="paint1_linear_482_1687" x1="189.182" y1="489.996" x2="189.182" y2="316.622" gradientUnits="userSpaceOnUse">
<stop stop-color="#647E67"/>
<stop offset="0.203125" stop-color="#0CAE1F" stop-opacity="0.54"/>
<stop offset="1" stop-color="#657F67" stop-opacity="0.5"/>
</linearGradient>
<linearGradient id="paint2_linear_482_1687" x1="6.46407" y1="535.829" x2="6.46407" y2="415.721" gradientUnits="userSpaceOnUse">
<stop stop-color="#647E67"/>
<stop offset="0.203125" stop-color="#0CAE1F" stop-opacity="0.54"/>
<stop offset="1" stop-color="#657F67" stop-opacity="0.5"/>
</linearGradient>
<linearGradient id="paint3_linear_482_1687" x1="554.722" y1="535.829" x2="554.722" y2="421.081" gradientUnits="userSpaceOnUse">
<stop stop-color="#647E67"/>
<stop offset="0.203125" stop-color="#0CAE1F" stop-opacity="0.54"/>
<stop offset="1" stop-color="#657F67" stop-opacity="0.5"/>
</linearGradient>
<linearGradient id="paint4_linear_482_1687" x1="108.524" y1="535.829" x2="108.524" y2="439.634" gradientUnits="userSpaceOnUse">
<stop stop-color="#647E67"/>
<stop offset="0.203125" stop-color="#0CAE1F" stop-opacity="0.54"/>
<stop offset="1" stop-color="#657F67" stop-opacity="0.5"/>
</linearGradient>
<linearGradient id="paint5_linear_482_1687" x1="349.764" y1="535.829" x2="349.764" y2="444.113" gradientUnits="userSpaceOnUse">
<stop stop-color="#647E67"/>
<stop offset="0.203125" stop-color="#0CAE1F" stop-opacity="0.54"/>
<stop offset="1" stop-color="#657F67" stop-opacity="0.5"/>
</linearGradient>
<linearGradient id="paint6_linear_482_1687" x1="54.6968" y1="536" x2="54.6968" y2="456.129" gradientUnits="userSpaceOnUse">
<stop stop-color="#647E67"/>
<stop offset="0.203125" stop-color="#0CAE1F" stop-opacity="0.54"/>
<stop offset="1" stop-color="#657F67" stop-opacity="0.5"/>
</linearGradient>
<linearGradient id="paint7_linear_482_1687" x1="513.952" y1="535.829" x2="513.952" y2="460.043" gradientUnits="userSpaceOnUse">
<stop stop-color="#647E67"/>
<stop offset="0.203125" stop-color="#0CAE1F" stop-opacity="0.54"/>
<stop offset="1" stop-color="#657F67" stop-opacity="0.5"/>
</linearGradient>
<linearGradient id="paint8_linear_482_1687" x1="627.034" y1="536.015" x2="627.034" y2="463.9" gradientUnits="userSpaceOnUse">
<stop stop-color="#647E67"/>
<stop offset="0.203125" stop-color="#0CAE1F" stop-opacity="0.54"/>
<stop offset="1" stop-color="#657F67" stop-opacity="0.5"/>
</linearGradient>
<linearGradient id="paint9_linear_482_1687" x1="182.676" y1="535.829" x2="182.676" y2="476.345" gradientUnits="userSpaceOnUse">
<stop stop-color="#647E67"/>
<stop offset="0.203125" stop-color="#0CAE1F" stop-opacity="0.54"/>
<stop offset="1" stop-color="#657F67" stop-opacity="0.5"/>
</linearGradient>
<linearGradient id="paint10_linear_482_1687" x1="248.034" y1="535.829" x2="248.034" y2="476.728" gradientUnits="userSpaceOnUse">
<stop stop-color="#647E67"/>
<stop offset="0.203125" stop-color="#0CAE1F" stop-opacity="0.54"/>
<stop offset="1" stop-color="#657F67" stop-opacity="0.5"/>
</linearGradient>
<linearGradient id="paint11_linear_482_1687" x1="591.323" y1="535.829" x2="591.323" y2="480.652" gradientUnits="userSpaceOnUse">
<stop stop-color="#647E67"/>
<stop offset="0.203125" stop-color="#0CAE1F" stop-opacity="0.54"/>
<stop offset="1" stop-color="#657F67" stop-opacity="0.5"/>
</linearGradient>
<linearGradient id="paint12_linear_482_1687" x1="153.095" y1="535.829" x2="153.095" y2="489.91" gradientUnits="userSpaceOnUse">
<stop stop-color="#647E67"/>
<stop offset="0.203125" stop-color="#0CAE1F" stop-opacity="0.54"/>
<stop offset="1" stop-color="#657F67" stop-opacity="0.5"/>
</linearGradient>
<linearGradient id="paint13_linear_482_1687" x1="607.988" y1="515.582" x2="607.988" y2="514.371" gradientUnits="userSpaceOnUse">
<stop stop-color="#647E67"/>
<stop offset="0.203125" stop-color="#0CAE1F" stop-opacity="0.54"/>
<stop offset="1" stop-color="#657F67" stop-opacity="0.5"/>
</linearGradient>
</defs>
</svg>
